<svg width="41" height="51" viewBox="0 0 41 51" fill="none" xmlns="http://www.w3.org/2000/svg">
<path d="M11.9048 31.5996C7.97706 31.5996 6.01317 31.5996 4.61496 30.7612C3.70114 30.2132 2.96493 29.4297 2.48979 28.4994C1.76282 27.0758 1.95823 25.1936 2.34906 21.4292C2.67531 18.2868 2.83844 16.7155 3.64066 15.5616C4.16734 14.804 4.8797 14.183 5.71475 13.7536C6.98664 13.0996 8.62604 13.0996 11.9048 13.0996H29.0951C32.374 13.0996 34.0133 13.0996 35.2852 13.7536C36.1203 14.183 36.8327 14.804 37.3594 15.5616C38.1616 16.7155 38.3248 18.2868 38.6509 21.4292C39.0418 25.1936 39.2372 27.0758 38.5101 28.4994C38.035 29.4297 37.2989 30.2132 36.385 30.7612C34.9868 31.5996 33.023 31.5996 29.0951 31.5996" stroke="url(#paint0_linear_249_2)" stroke-width="2.775"/>
<path d="M29.75 13.1V9.4C29.75 5.9116 29.75 4.1674 28.6663 3.08371C27.5825 2 25.8384 2 22.35 2H18.65C15.1616 2 13.4174 2 12.3337 3.08371C11.25 4.1674 11.25 5.9116 11.25 9.4V13.1" stroke="url(#paint1_linear_249_2)" stroke-width="2.775" stroke-linejoin="round"/>
<path d="M31.6 20.5H31.6157" stroke="url(#paint2_linear_249_2)" stroke-width="3.7" stroke-linecap="round" stroke-linejoin="round"/>
<path d="M19.2413 48.6765L16.9721 47.2162C16.3962 46.8457 16.1082 46.6603 15.7886 46.6496C15.4433 46.638 15.1502 46.8157 14.5279 47.2162C13.8309 47.6648 12.445 48.9003 11.5486 48.3112C11 47.9505 11 47.0347 11 45.2029V32.3028C11 28.8754 11 27.1617 11.9821 26.097C12.9641 25.0322 14.5447 25.0322 17.7059 25.0322H23.2941C26.4553 25.0322 28.0358 25.0322 29.0179 26.097C30 27.1617 30 28.8754 30 32.3028V45.2029C30 47.0347 30 47.9505 29.4515 48.3112C28.555 48.9003 27.1691 47.6648 26.472 47.2162C25.8962 46.8457 25.6082 46.6603 25.2887 46.6496C24.9433 46.638 24.6503 46.8157 24.028 47.2162L21.7587 48.6765C21.1467 49.0705 20.8405 49.2674 20.5 49.2674C20.1595 49.2674 19.8533 49.0705 19.2413 48.6765Z" stroke="url(#paint3_linear_249_2)" stroke-width="2.78" stroke-linecap="round" stroke-linejoin="round"/>
<path d="M23.8529 32.3037L17.147 39.5743" stroke="url(#paint4_linear_249_2)" stroke-width="2.78" stroke-linecap="round" stroke-linejoin="round"/>
<path d="M23.8529 39.5743H23.8428M17.157 32.3037H17.147" stroke="url(#paint5_linear_249_2)" stroke-width="2.78" stroke-linecap="round" stroke-linejoin="round"/>
<defs>
<linearGradient id="paint0_linear_249_2" x1="20.5" y1="13.0996" x2="20.5" y2="31.5996" gradientUnits="userSpaceOnUse">
<stop stop-color="#389CF4"/>
<stop offset="1" stop-color="#1A5C96"/>
</linearGradient>
<linearGradient id="paint1_linear_249_2" x1="20.5" y1="2" x2="20.5" y2="13.1" gradientUnits="userSpaceOnUse">
<stop stop-color="#389CF4"/>
<stop offset="1" stop-color="#1A5C96"/>
</linearGradient>
<linearGradient id="paint2_linear_249_2" x1="31.6079" y1="20.5" x2="31.6079" y2="21.5" gradientUnits="userSpaceOnUse">
<stop stop-color="#389CF4"/>
<stop offset="1" stop-color="#1A5C96"/>
</linearGradient>
<linearGradient id="paint3_linear_249_2" x1="20.5" y1="25.0322" x2="20.5" y2="49.2674" gradientUnits="userSpaceOnUse">
<stop stop-color="#389CF4"/>
<stop offset="1" stop-color="#1A5C96"/>
</linearGradient>
<linearGradient id="paint4_linear_249_2" x1="20.4999" y1="32.3037" x2="20.4999" y2="39.5743" gradientUnits="userSpaceOnUse">
<stop stop-color="#389CF4"/>
<stop offset="1" stop-color="#1A5C96"/>
</linearGradient>
<linearGradient id="paint5_linear_249_2" x1="20.4999" y1="32.3037" x2="20.4999" y2="39.5743" gradientUnits="userSpaceOnUse">
<stop stop-color="#389CF4"/>
<stop offset="1" stop-color="#1A5C96"/>
</linearGradient>
</defs>
</svg>
